<svg width="1350" height="677" viewBox="0 0 1350 677" fill="none" xmlns="http://www.w3.org/2000/svg">
<path d="M297.753 16.0348C297.753 16.0348 365.121 79.2156 367.234 79.2156C369.348 79.2156 436.452 15.2417 436.452 15.2417C438.038 15.2417 405.963 15.2417 367.498 15.2417C289.032 15.2417 296.958 14.4486 297.753 16.0348Z" fill="white"/>
<path d="M414.948 53.1531L373.043 91.7221V139.75C373.043 166.397 373.043 188.127 373.043 188.127C373.466 188.127 393.601 169.679 416.427 147.051L456.797 105.812V61.6364C457.057 36.6537 457.057 15.2412 457.057 15.2412C456.634 15.2412 437.774 32.0051 414.948 53.1531Z" fill="white"/>
<path d="M276.356 60.6028V104.591L317.992 146.463C341.342 169.092 361.531 188.498 361.531 188.127C361.531 187.334 361.531 163.543 361.531 137.37V91.7219L343.143 74.5604C333.632 66.1013 315.667 49.8172 302.775 37.9744C289.824 26.344 276.352 15.2412 276.352 15.2412C276.352 15.2412 276.351 36.6537 276.356 60.6028Z" fill="white"/>
<path d="M585.183 141.909C572.262 141.909 561.149 139.739 551.843 135.4C542.537 131.06 535.444 125.139 530.565 117.635C525.686 110.04 523.246 101.452 523.246 91.8684C523.246 82.1947 525.731 73.5155 530.7 65.8309C535.669 58.0558 542.852 51.9532 552.249 47.5233C561.736 43.0028 573.031 40.7427 586.132 40.7427C594.174 40.7427 601.492 41.5563 608.088 43.1837C614.774 44.7207 621.098 46.9808 627.062 49.9643V78.0359C623.177 75.3237 618.342 73.1539 612.56 71.5266C606.868 69.8089 600.769 68.95 594.263 68.95C587.216 68.95 581.117 69.8992 575.967 71.7978C570.817 73.606 566.887 76.1826 564.176 79.5277C561.555 82.8727 560.246 86.7151 560.246 91.0547C560.246 95.4846 561.601 99.3723 564.311 102.717C567.022 106.062 570.907 108.684 575.967 110.583C581.117 112.481 587.216 113.431 594.263 113.431C600.95 113.431 607.184 112.527 612.967 110.718C618.749 108.91 623.538 106.514 627.333 103.531V130.925C620.827 134.722 614.276 137.48 607.681 139.197C601.085 141.005 593.586 141.909 585.183 141.909ZM688.297 141.502C677.635 141.502 668.374 139.604 660.513 135.807C652.742 132.009 646.779 126.811 642.623 120.211C638.557 113.612 636.524 106.243 636.524 98.1065C636.524 89.9698 638.557 82.7371 642.623 76.4086C646.779 69.9896 652.742 64.972 660.513 61.3557C668.284 57.7394 677.544 55.9312 688.297 55.9312C699.049 55.9312 708.309 57.7394 716.08 61.3557C723.851 64.972 729.769 69.9445 733.834 76.273C737.9 82.6015 739.933 89.8794 739.933 98.1065C739.933 106.243 737.9 113.612 733.834 120.211C729.769 126.811 723.805 132.009 715.945 135.807C708.174 139.604 698.958 141.502 688.297 141.502ZM688.297 116.685C692.091 116.685 695.344 115.962 698.055 114.516C700.855 112.978 702.979 110.854 704.425 108.142C705.961 105.339 706.729 102.175 706.729 98.649C706.729 95.123 705.961 92.004 704.425 89.2917C702.979 86.5795 700.855 84.5001 698.055 83.0536C695.344 81.6071 692.091 80.8838 688.297 80.8838C684.502 80.8838 681.204 81.6071 678.403 83.0536C675.602 84.5001 673.434 86.5795 671.897 89.2917C670.452 92.004 669.729 95.123 669.729 98.649C669.729 102.175 670.452 105.339 671.897 108.142C673.434 110.854 675.602 112.978 678.403 114.516C681.204 115.962 684.502 116.685 688.297 116.685ZM782.948 141.638C775.9 141.638 769.937 140.327 765.058 137.705C760.269 134.993 756.61 131.106 754.08 126.043C751.641 120.889 750.421 114.651 750.421 107.328V59.4571H783.626V99.1914C783.626 103.26 784.122 106.604 785.116 109.227C786.201 111.758 787.827 113.656 789.995 114.922C792.164 116.188 794.965 116.821 798.398 116.821C801.832 116.821 804.723 116.143 807.072 114.787C809.512 113.431 811.319 111.396 812.493 108.684C813.668 105.882 814.255 102.491 814.255 98.5133V59.4571H847.46V138.79H814.255V112.888L816.695 114.38C814.887 123.24 811.048 130.021 805.175 134.722C799.393 139.333 791.983 141.638 782.948 141.638ZM904.283 166.997C899.043 166.997 893.983 166.591 889.104 165.777C884.224 164.963 879.798 163.833 875.822 162.387C871.846 160.94 868.549 159.267 865.928 157.369V133.501C869.271 136.395 873.743 138.88 879.345 140.96C885.038 143.04 890.955 144.079 897.1 144.079C907.4 144.079 915.261 141.683 920.682 136.891C926.103 132.1 928.814 125.003 928.814 115.6V104.209L931.795 105.158C929.988 111.849 927.458 117.318 924.206 121.567C920.953 125.726 917.023 128.8 912.415 130.789C907.807 132.778 902.566 133.772 896.693 133.772C889.014 133.772 882.327 132.145 876.635 128.89C870.943 125.636 866.56 121.161 863.488 115.465C860.507 109.679 859.016 103.124 859.016 95.8011C859.016 87.9356 860.597 81.0194 863.76 75.0525C867.012 68.9952 871.53 64.2939 877.312 60.9488C883.186 57.6038 889.917 55.9312 897.506 55.9312C903.56 55.9312 908.801 56.9709 913.228 59.0503C917.655 61.0392 921.36 64.1583 924.341 68.4075C927.413 72.5662 929.898 77.9003 931.795 84.4097L928.814 85.2234V59.4571H961.883V119.126C961.883 129.252 959.579 137.886 954.971 145.028C950.363 152.17 943.722 157.595 935.048 161.302C926.464 165.099 916.209 166.997 904.283 166.997ZM910.924 111.532C914.538 111.532 917.7 110.854 920.411 109.498C923.121 108.142 925.2 106.289 926.645 103.938C928.182 101.497 928.949 98.7393 928.949 95.6655C928.949 92.5917 928.226 89.8794 926.781 87.5288C925.335 85.0878 923.257 83.1892 920.546 81.8331C917.836 80.477 914.719 79.7989 911.195 79.7989C907.671 79.7989 904.554 80.477 901.843 81.8331C899.133 83.1892 897.054 85.0878 895.609 87.5288C894.164 89.9698 893.44 92.7724 893.44 95.9367C893.44 98.9202 894.164 101.632 895.609 104.073C897.054 106.424 899.087 108.277 901.708 109.634C904.418 110.9 907.49 111.532 910.924 111.532ZM1026.23 141.502C1015.3 141.502 1005.81 139.694 997.771 136.078C989.729 132.371 983.54 127.218 979.203 120.618C974.956 114.019 972.833 106.469 972.833 97.9709C972.833 89.9246 974.776 82.7371 978.661 76.4086C982.637 69.9896 988.329 64.972 995.738 61.3557C1003.15 57.7394 1011.87 55.9312 1021.89 55.9312C1031.83 55.9312 1040.15 57.5586 1046.83 60.8132C1053.61 64.0679 1058.67 68.724 1062.01 74.7813C1065.36 80.7482 1067.03 87.8 1067.03 95.9367V105.023H986.657V90.5122H1043.72L1040.73 96.6148V94.1738C1040.73 91.0999 1040.06 88.4781 1038.7 86.3083C1037.44 84.1385 1035.49 82.5111 1032.87 81.4262C1030.34 80.251 1027.23 79.6633 1023.52 79.6633C1019.55 79.6633 1016.16 80.3413 1013.36 81.6975C1010.65 82.9632 1008.57 84.8165 1007.12 87.2576C1005.68 89.6082 1004.95 92.3204 1004.95 95.3943L1004.28 96.3435C1004.37 100.502 1005.54 104.119 1007.8 107.193C1010.15 110.176 1013.58 112.481 1018.1 114.109C1022.62 115.646 1028.17 116.414 1034.77 116.414C1040.55 116.414 1045.79 115.736 1050.49 114.38C1055.28 113.024 1059.89 110.99 1064.32 108.277V131.738C1059.8 134.722 1054.15 137.073 1047.37 138.79C1040.69 140.599 1033.64 141.502 1026.23 141.502Z" fill="white"/>
<path d="M64.8012 255.967H248.613C274.307 255.967 295.625 260.205 312.566 268.681C329.79 277.157 342.354 288.882 350.26 303.855C358.448 318.547 362.542 335.357 362.542 354.286C362.542 382.539 356.049 405.705 343.06 423.787C330.354 441.869 312.425 455.147 289.272 463.623C266.119 471.816 238.589 475.913 206.684 475.913H114.354L128.331 408.531H188.895C208.095 408.531 223.342 404.858 234.637 397.512C246.213 390.167 252.001 378.725 252.001 363.186C252.001 353.015 248.472 344.822 241.413 338.606C234.354 332.39 224.472 329.283 211.766 329.283H155.013L107.578 553.042H1.69531L64.8012 255.967ZM422.568 256.391H528.451L465.345 553.042H359.462L422.568 256.391ZM438.239 466.59H650.003L631.792 553.042H420.027L438.239 466.59ZM821.231 562.789C789.326 562.789 761.373 556.15 737.372 542.871C713.655 529.593 696.573 510.804 686.125 486.508C675.679 461.928 673.843 433.675 680.619 401.75L711.537 256.391H816.996L783.961 410.65C781.138 423.928 781.279 435.37 784.384 444.976C787.491 454.583 793.137 462.069 801.325 467.437C809.514 472.523 819.537 475.065 831.396 475.065C849.184 475.065 863.302 470.404 873.749 461.08C884.479 451.474 891.82 436.925 895.772 417.43L930.078 256.391H1035.54L999.961 423.787C993.75 452.888 983.161 477.891 968.196 498.797C953.232 519.422 933.466 535.243 908.902 546.262C884.337 557.28 855.114 562.789 821.231 562.789ZM1171.07 561.942C1140.85 561.942 1113.32 558.269 1088.48 550.923C1063.63 543.578 1042.17 533.548 1024.1 520.834L1039.77 448.367C1050.22 455.712 1062.65 462.352 1077.05 468.285C1091.45 473.935 1106.69 478.456 1122.79 481.846C1139.16 484.953 1155.25 486.508 1171.07 486.508C1187.73 486.508 1199.3 485.095 1205.8 482.27C1212.58 479.162 1215.96 473.794 1215.96 466.166C1215.96 461.08 1213.42 456.843 1208.34 453.452C1203.26 450.062 1194.64 447.095 1182.51 444.553L1150.32 438.196C1118.98 431.98 1096.11 422.092 1081.71 408.531C1067.31 394.687 1060.11 377.594 1060.11 357.253C1060.11 332.108 1066.6 311.343 1079.59 294.956C1092.86 278.569 1111.07 266.562 1134.22 258.934C1157.37 251.306 1184.34 247.492 1215.12 247.492C1243.35 247.492 1268.62 250.741 1290.93 257.239C1313.23 263.737 1332.86 271.788 1349.8 281.395L1334.55 350.896C1325.51 345.246 1309.42 339.594 1286.27 333.944C1263.11 328.011 1240.95 325.045 1219.78 325.045C1203.68 325.045 1191.4 326.316 1182.93 328.859C1174.46 331.119 1170.22 335.78 1170.22 342.844C1170.22 347.082 1172.48 350.755 1177 353.862C1181.8 356.688 1189.71 358.948 1200.72 360.643L1239.26 367C1270.31 372.368 1293.05 381.832 1307.45 395.393C1321.85 408.955 1329.05 427.037 1329.05 449.638C1329.05 474.218 1322.12 494.983 1308.29 511.935C1294.74 528.603 1275.96 541.176 1251.96 549.652C1228.25 557.845 1201.28 561.942 1171.07 561.942Z" fill="white"/>
</svg>
